<svg width="81" height="81" viewBox="0 0 81 81" fill="none" xmlns="http://www.w3.org/2000/svg">
<rect width="81" height="81" fill="transparent"/>
<g clip-path="url(#clip0_309_338)">
<path d="M77.9144 57.657C77.8704 57.7907 77.8165 57.9229 77.7856 58.0582C77.0336 61.3024 74.7665 63.2417 71.3951 63.5908C68.8327 63.855 66.2769 64.1779 63.628 64.4846C63.628 64.7994 63.6313 65.0848 63.628 65.3686C63.5791 68.9846 63.5285 72.6023 63.4796 76.2184C63.4764 76.4108 63.4812 76.6049 63.4617 76.7957C63.3948 77.4335 62.9234 77.882 62.3248 77.8886C61.7409 77.8951 61.2337 77.44 61.1554 76.817C61.126 76.5788 61.1423 76.3358 61.1456 76.0944C61.1994 72.0445 61.2532 67.993 61.3103 63.9431C61.3283 62.6709 61.5648 62.3756 62.8337 62.2207C65.5608 61.8879 68.2863 61.5536 71.02 61.2812C74.0912 60.9746 75.7141 59.0695 75.5559 55.9999C75.2542 50.1493 75.0046 44.2954 74.7355 38.4432C74.6311 36.1549 74.5349 33.8665 74.4305 31.5798C74.3424 29.6453 73.1632 28.0975 71.4065 27.6049C69.5683 27.0895 67.7106 27.7957 66.6602 29.4904C64.654 32.7248 62.6755 35.9771 60.7068 39.2343C60.2697 39.9568 59.6401 40.3173 58.8425 40.4331C55.1466 40.9632 51.449 41.477 47.7547 42.0136C45.8594 42.2892 44.7209 43.7572 44.9117 45.628C45.0863 47.3357 46.5999 48.6112 48.4315 48.4008C51.4213 48.0566 54.3979 47.5934 57.3795 47.1759C58.9273 46.9589 60.472 46.711 62.0215 46.5169C63.3589 46.3489 64.3506 45.7193 65.0422 44.5531C66.1366 42.7101 67.2669 40.8865 68.3874 39.0598C68.8865 38.2442 69.5504 38.0143 70.1783 38.4204C70.7851 38.8118 70.8699 39.4741 70.392 40.2602C69.3041 42.0511 68.1885 43.8257 67.1315 45.6362C66.8901 46.0488 66.7433 46.5708 66.727 47.047C66.6748 48.5166 66.714 49.9878 66.7058 51.459C66.6993 52.5143 66.3503 52.8927 65.3145 53.0101C62.2987 53.3559 59.2829 53.7017 56.2655 54.0442C53.951 54.3068 52.2971 56.1385 52.2922 58.5182C52.2776 64.3541 52.2873 70.1884 52.2873 76.0243C52.2873 76.2412 52.2971 76.4598 52.2808 76.6751C52.227 77.3927 51.7312 77.8983 51.0967 77.8918C50.4475 77.8853 49.9859 77.3976 49.9549 76.6538C49.9354 76.1727 49.9484 75.6899 49.9484 75.2071C49.9484 69.9502 50.0789 64.6901 49.9076 59.4381C49.769 55.2186 52.2971 51.888 56.944 51.5879C59.2014 51.4411 61.4441 51.0806 63.6965 50.8506C64.2185 50.7968 64.4077 50.6109 64.3653 50.0857C64.3212 49.5425 64.3555 48.9912 64.3555 48.546C60.6024 49.0793 56.9179 49.6061 53.2301 50.1264C51.7034 50.3417 50.1768 50.5521 48.6468 50.743C47.5655 50.8784 46.5085 50.7104 45.5772 50.1525C44.959 49.7823 44.3425 49.6861 43.6558 49.7122C42.9398 49.7399 42.2238 49.7187 41.4327 49.7187V50.65C41.4327 59.138 41.4327 67.626 41.4294 76.1123C41.4294 76.4239 41.436 76.7485 41.3528 77.042C41.188 77.6227 40.7526 77.931 40.1572 77.8771C39.5733 77.8233 39.1835 77.4759 39.1166 76.8577C39.0889 76.5951 39.0954 76.3276 39.0954 76.0634C39.0954 67.5999 39.0954 59.1364 39.0954 50.6728C39.0954 50.389 39.0954 50.1036 39.0954 49.7203H38.2587C35.437 49.7203 32.6169 49.7203 29.7952 49.7203C29.5782 49.7203 29.3597 49.7301 29.1444 49.7105C28.5066 49.6534 28.0548 49.187 28.0401 48.5851C28.0255 47.9996 28.4724 47.4678 29.0971 47.4091C29.575 47.3634 30.061 47.3895 30.5422 47.3895C34.3768 47.3895 38.2097 47.3895 42.0443 47.3895H42.7946C42.718 46.4794 42.532 45.6003 42.5907 44.7375C42.7685 42.1392 44.7209 40.0922 47.2947 39.7187C50.7509 39.218 54.2104 38.7238 57.6731 38.2671C58.3777 38.1741 58.8099 37.8952 59.1802 37.2738C61.0053 34.2107 62.8451 31.1557 64.7567 28.1464C66.1725 25.9151 68.2928 24.8859 70.9156 25.1648C73.6313 25.4519 75.5641 26.9508 76.3812 29.5556C76.7841 30.836 76.7922 32.2599 76.8575 33.6251C77.1902 40.5114 77.4822 47.401 77.7937 54.2889C77.8068 54.5955 77.8736 54.8989 77.916 55.2023V57.6619L77.9144 57.657Z" fill="#FF9900"/>
<path d="M17.4236 48.373V50.7511C18.9764 50.9321 20.5031 51.1083 22.0297 51.2893C23.4406 51.4573 24.8661 51.5585 26.259 51.8194C29.4999 52.4246 31.741 55.0212 31.772 58.3126C31.8274 64.3883 31.7948 70.4656 31.7899 76.5429C31.7899 77.3845 31.3055 77.9065 30.6107 77.8885C29.9273 77.8706 29.4641 77.3307 29.4608 76.4923C29.451 74.2496 29.4575 72.0069 29.4575 69.7643C29.4575 66.1238 29.4592 62.4816 29.4575 58.8411C29.4543 56.0243 27.9406 54.3329 25.1532 54.0148C22.232 53.6805 19.3124 53.3428 16.3928 53.0036C15.3962 52.8878 15.0488 52.5045 15.0407 51.4916C15.0293 50.0204 15.0733 48.5475 15.0178 47.0796C14.9983 46.5789 14.8449 46.0341 14.5938 45.6019C13.514 43.7506 12.3723 41.9336 11.2583 40.102C10.9696 39.629 10.8782 39.0777 11.2974 38.7058C11.5943 38.4416 12.1113 38.2752 12.5044 38.3176C12.8061 38.3502 13.1389 38.7286 13.3313 39.0336C14.4616 40.8278 15.5545 42.6448 16.6603 44.4536C17.8363 46.3734 19.1998 46.8969 21.3055 46.0732C25.9247 44.2693 30.5275 42.4246 35.1222 40.5619C36.8299 39.8704 37.5932 38.0305 36.9473 36.3815C36.2916 34.7081 34.4485 33.8975 32.7049 34.5792C29.3205 35.9053 25.9508 37.2688 22.5745 38.6177C21.2093 39.1625 20.9565 39.0809 20.1785 37.8087C18.2424 34.6428 16.3178 31.4721 14.3687 28.3144C13.6005 27.0699 12.1733 26.4762 10.8244 26.7714C9.39071 27.0862 8.45938 28.0958 8.24898 29.6208C8.15601 30.2879 8.12828 30.9648 8.07772 31.6385C7.67159 37.0225 7.27035 42.4066 6.86258 47.7907C6.64565 50.6516 6.44014 53.5125 6.19385 56.3701C5.9965 58.6568 7.53458 60.7902 9.80826 61.1295C12.9774 61.6025 16.1596 61.976 19.3352 62.4033C20.2747 62.5289 20.6026 62.9024 20.6042 63.8289C20.6107 68.0484 20.6107 72.2695 20.6042 76.4891C20.6042 77.3274 20.1442 77.8689 19.4624 77.8901C18.7432 77.913 18.2783 77.3764 18.2767 76.4793C18.2718 72.8143 18.2734 69.1477 18.2734 65.4827C18.2734 65.2201 18.2734 64.9575 18.2734 64.6183C16.7598 64.4193 15.287 64.2252 13.8141 64.0311C12.3804 63.8419 10.9435 63.6804 9.5163 63.457C6.0911 62.9187 3.60864 59.8785 3.8533 56.4272C4.27737 50.4396 4.76668 44.4569 5.22501 38.4726C5.44031 35.6606 5.67192 32.8487 5.8497 30.0351C6.02422 27.2623 7.60634 25.1615 10.066 24.5401C12.5941 23.9024 15.0439 24.9446 16.4923 27.2999C18.2098 30.0906 19.9273 32.8813 21.6056 35.6949C21.927 36.2331 22.1896 36.2772 22.7409 36.0504C25.7469 34.8157 28.7643 33.6071 31.7916 32.4262C35.07 31.1475 38.4903 32.8927 39.3384 36.2413C39.9925 38.8265 38.7203 41.5406 36.2019 42.6219C33.372 43.8387 30.4916 44.9364 27.6324 46.0847C25.711 46.8561 23.788 47.6195 21.8715 48.404C20.4182 48.9993 18.9699 48.9667 17.4253 48.3747L17.4236 48.373Z" fill="#FF9900"/>
<path d="M40.3024 5.00325C42.9055 5.00325 45.5103 4.99999 48.1135 5.00325C50.4573 5.00652 51.8975 6.43695 51.9057 8.78566C51.9155 11.7264 51.9138 14.6672 51.9057 17.6096C51.8991 20.0105 50.4752 21.4377 48.0858 21.441C44.3245 21.4475 40.5633 21.4573 36.8038 21.4296C36.0568 21.4247 35.4696 21.6106 34.9166 22.1293C33.9511 23.0361 32.9251 23.8794 31.9269 24.752C31.268 25.3278 30.5324 25.5153 29.7218 25.1418C28.9127 24.77 28.5751 24.0882 28.5751 23.2156C28.5768 18.3452 28.567 13.4766 28.58 8.60624C28.5865 6.51198 30.0985 5.01793 32.2009 5.00652C34.9003 4.99184 37.6014 5.00325 40.3007 5.00325H40.3024ZM30.9092 22.5338C31.8764 21.6922 32.7147 21.0071 33.5025 20.2666C34.398 19.4234 35.4288 19.0792 36.6553 19.0906C40.441 19.1233 44.2267 19.1053 48.0124 19.1004C49.2014 19.0988 49.5684 18.7237 49.57 17.5428C49.5733 14.6738 49.5733 11.8031 49.57 8.93409C49.57 7.7059 49.2046 7.33729 47.9748 7.33729C42.8387 7.33402 37.7025 7.33402 32.5663 7.33729C31.2664 7.33729 30.9108 7.7059 30.9108 9.03847C30.9108 12.511 30.9108 15.9835 30.9108 19.456C30.9108 20.415 30.9108 21.3741 30.9108 22.5354L30.9092 22.5338Z" fill="#FF9900"/>
<path d="M75.9539 13.2595C75.949 17.8395 72.2433 21.5191 67.6584 21.4979C63.1224 21.4767 59.4346 17.753 59.4673 13.2252C59.4999 8.67787 63.204 4.99496 67.7285 5.00637C72.258 5.01779 75.9604 8.73169 75.9555 13.2595H75.9539ZM73.6036 13.2269C73.5889 9.97945 70.9531 7.3453 67.7122 7.34041C64.455 7.33551 61.798 10.0186 61.816 13.2937C61.8339 16.5803 64.486 19.1916 67.7791 19.1655C71.0184 19.1394 73.6183 16.489 73.6019 13.2269H73.6036Z" fill="#FF9900"/>
<path d="M13.9887 21.4979C9.44786 21.4816 5.77311 17.7759 5.79268 13.235C5.81225 8.6909 9.50984 4.99983 14.0376 5.00636C18.5654 5.01125 22.2761 8.72352 22.2793 13.2497C22.2826 17.8232 18.572 21.5158 13.9887 21.4995V21.4979ZM19.9241 13.2497C19.9192 9.999 17.303 7.36649 14.0556 7.34202C10.8033 7.31755 8.12998 9.99411 8.1365 13.2709C8.14302 16.5314 10.756 19.1557 14.0034 19.1655C17.2883 19.1753 19.9274 16.5379 19.9225 13.2497H19.9241Z" fill="#FF9900"/>
<path d="M40.2926 12.2467C38.629 12.2467 36.9669 12.2516 35.3032 12.2451C34.3801 12.2402 33.8859 11.8194 33.894 11.0724C33.9022 10.3302 34.4013 9.91595 35.3293 9.91431C38.6795 9.90942 42.0313 9.90942 45.3815 9.91431C46.277 9.91431 46.8103 10.3743 46.8022 11.0985C46.794 11.8226 46.2786 12.2402 45.3554 12.2451C43.6673 12.2516 41.9808 12.2467 40.2926 12.2467Z" fill="#FF9900"/>
<path d="M37.6764 14.1877C38.4952 14.1877 39.3156 14.1681 40.1344 14.1926C40.9255 14.2154 41.4295 14.6982 41.4213 15.3637C41.4132 16.0226 40.8912 16.5169 40.1116 16.5266C38.4724 16.5462 36.8332 16.5462 35.1956 16.5266C34.3801 16.5169 33.9071 16.0716 33.894 15.3768C33.8793 14.6493 34.3507 14.2089 35.2201 14.1877C36.0388 14.1681 36.8593 14.1828 37.678 14.1861L37.6764 14.1877Z" fill="#FF9900"/>
</g>
<defs>
<clipPath id="clip0_309_338">
<rect width="74.0774" height="72.89" fill="white" transform="translate(3.83704 5)"/>
</clipPath>
</defs>
</svg>
