<svg width="81" height="81" viewBox="0 0 81 81" fill="none" xmlns="http://www.w3.org/2000/svg">
<rect width="81" height="81" fill="transparent"/>
<g clip-path="url(#clip0_309_306)">
<path d="M42.2667 2C42.671 2.12735 43.0813 2.23854 43.4776 2.3861C46.3723 3.45951 47.9875 6.4877 47.2901 9.5179C47.2456 9.70994 47.2092 9.90603 47.1607 10.1486C53.0756 13.5629 58.9823 16.9752 64.9316 20.4097C65.1802 20.1934 65.4187 19.9811 65.6633 19.7749C67.5656 18.1658 70.1854 17.8545 72.3868 18.9744C74.5963 20.1004 75.9426 22.4372 75.6838 24.96C75.419 27.5233 74.0202 29.3042 71.5802 30.1613C70.9212 30.3938 70.715 30.6566 70.7191 31.356C70.7514 37.659 70.7454 43.964 70.7231 50.269C70.7231 50.8451 70.8747 51.0736 71.4488 51.2454C73.8119 51.9549 75.5262 54.126 75.7 56.5114C75.886 59.0746 74.57 61.4094 72.312 62.5253C70.0742 63.631 67.4038 63.2975 65.5602 61.5772C65.0569 61.1082 64.7415 61.1608 64.222 61.464C58.5598 64.755 52.8855 68.0237 47.1769 71.3208C47.9268 74.4541 47.1567 77.0557 44.276 78.6992C42.0908 79.9464 39.8348 79.7807 37.7992 78.2949C35.426 76.5625 34.8458 74.1589 35.5473 71.3268C34.2919 70.5991 33.0325 69.8673 31.7711 69.1396C27.2996 66.5581 22.824 63.9828 18.3606 61.3851C17.93 61.1345 17.6733 61.1062 17.269 61.4842C15.3486 63.2793 12.6883 63.6573 10.4 62.5253C8.14402 61.4094 6.8341 59.0807 7.01603 56.5093C7.18786 54.0795 8.93847 51.9367 11.4148 51.2009C11.8716 51.0655 11.9909 50.8674 11.9889 50.4206C11.9768 43.966 11.9788 37.5094 11.9848 31.0548C11.9848 30.6707 11.9485 30.4322 11.4896 30.2887C8.87782 29.4801 7.15147 27.3656 7.01199 24.8832C6.86442 22.2634 8.21882 19.9568 10.5354 18.8774C12.8945 17.7797 15.4598 18.2588 17.4974 20.1812C17.5682 20.2479 17.649 20.3086 17.7764 20.4157C23.6973 16.9974 29.6223 13.575 35.5695 10.1425C35.1976 8.86294 35.1086 7.6076 35.5008 6.38056C36.2063 4.16905 37.7143 2.77019 39.9561 2.16374C40.1219 2.11927 40.2836 2.0566 40.4453 2.00202C41.0497 2.00202 41.6562 2.00202 42.2606 2.00202L42.2667 2ZM36.6247 12.3561C36.655 12.2833 36.6854 12.2105 36.7157 12.1377C36.6267 12.1782 36.5338 12.2125 36.4488 12.2611C30.7543 15.546 25.0638 18.8349 19.3612 22.1077C18.9792 22.328 18.9751 22.5504 19.0055 22.9547C19.0762 23.921 19.0904 24.9034 19.0014 25.8677C18.959 26.3225 19.0237 26.5408 19.4158 26.7571C20.4973 27.3514 21.5707 27.9619 22.6179 28.6149C23.4568 29.1364 23.4285 30.2806 22.5532 30.5878C22.1913 30.7152 21.6536 30.6121 21.2958 30.4261C20.093 29.8035 18.9367 29.096 18.025 28.5724C16.7454 29.2254 15.6538 29.761 14.5926 30.3473C14.4147 30.4443 14.2651 30.7657 14.2651 30.984C14.2469 37.4892 14.2529 43.9943 14.2449 50.4995C14.2449 50.8876 14.3864 51.021 14.7401 51.1948C15.6559 51.6416 16.5494 52.153 17.3842 52.7352C17.7238 52.9717 17.9118 52.9798 18.2292 52.7898C19.246 52.1834 20.2729 51.5931 21.3019 51.0109C22.0822 50.5682 22.7088 50.6834 23.0666 51.3101C23.4204 51.9307 23.1899 52.529 22.4096 52.9859C21.4535 53.5458 20.5014 54.1159 19.525 54.6395C19.0641 54.8881 18.9327 55.1226 19.0257 55.6926C19.1652 56.5477 19.1833 57.4554 19.0479 58.3084C18.9509 58.9129 19.0317 59.1858 19.5654 59.489C23.3314 61.6298 27.0772 63.8089 30.8291 65.9739C32.7879 67.1039 34.7488 68.2319 36.4873 69.2346C37.6274 68.6039 38.5775 67.9954 39.5963 67.5487C40.0774 67.3384 40.2472 67.1504 40.2331 66.643C40.2007 65.4584 40.2027 64.2718 40.2331 63.0893C40.2573 62.1978 40.9082 61.6924 41.6805 61.9188C42.2829 62.0967 42.485 62.5637 42.487 63.1418C42.4931 64.3527 42.4749 65.5636 42.5072 66.7724C42.5133 66.9948 42.6528 67.3142 42.8287 67.4112C43.9101 68.0116 45.0199 68.5634 46.1196 69.1315C46.0549 69.3114 46.0832 69.3175 46.1035 69.3053C51.8647 65.984 57.6219 62.6587 63.3892 59.3475C63.745 59.1433 63.7409 58.925 63.7167 58.5551C63.656 57.5625 63.6398 56.5599 63.7146 55.5673C63.747 55.1509 63.7146 54.9305 63.3407 54.7264C62.3036 54.1563 61.2808 53.56 60.2619 52.9576C59.518 52.5169 59.3058 51.9388 59.6373 51.3323C59.983 50.6976 60.6218 50.5662 61.394 51.0028C62.4472 51.5971 63.4801 52.2278 64.5475 52.7938C64.7355 52.8929 65.0872 52.8322 65.2975 52.719C66.2193 52.2258 67.1269 51.7022 68.0123 51.1504C68.2145 51.025 68.4469 50.738 68.4489 50.5237C68.4712 43.9923 68.4651 37.4629 68.4752 30.9315C68.4752 30.5171 68.2791 30.4302 67.9456 30.2664C67.0521 29.8278 66.1728 29.3365 65.3642 28.7604C65.0023 28.5017 64.8042 28.4835 64.4565 28.6937C63.4417 29.3042 62.4148 29.8924 61.3818 30.4726C60.6238 30.8991 59.9648 30.7576 59.6272 30.129C59.3037 29.5245 59.5221 28.9444 60.266 28.5057C61.2848 27.9053 62.3057 27.3029 63.3467 26.7369C63.7268 26.5287 63.7571 26.3084 63.7146 25.8939C63.6237 24.9762 63.5287 24.0261 63.6782 23.1306C63.7874 22.4817 63.6075 22.2512 63.1142 21.9702C60.4641 20.4642 57.8321 18.9299 55.1921 17.4057C52.1396 15.643 49.0892 13.8823 46.2409 12.2368C45.0968 12.8614 44.1204 13.4659 43.0834 13.9328C42.6366 14.1329 42.4709 14.3088 42.483 14.7859C42.5133 15.9705 42.5072 17.1571 42.483 18.3417C42.4668 19.1442 42.0443 19.5889 41.3712 19.597C40.694 19.6051 40.2513 19.1604 40.2331 18.37C40.2068 17.1349 40.2412 15.8977 40.2048 14.6646C40.1987 14.4503 40.0329 14.1471 39.853 14.046C38.7918 13.4558 37.7022 12.914 36.6227 12.3561H36.6247ZM45.1837 8.13723C45.1958 5.9985 43.4957 4.27417 41.3671 4.27013C39.2668 4.26608 37.5667 5.93987 37.5344 8.04222C37.5041 10.1789 39.1859 11.9235 41.3105 11.9578C43.4209 11.9922 45.1695 10.2659 45.1817 8.13723H45.1837ZM73.444 57.0652C73.4521 54.9386 71.7339 53.2103 69.6093 53.2103C67.4948 53.2103 65.7503 54.9609 65.7644 57.0693C65.7786 59.1534 67.4887 60.8616 69.5749 60.8757C71.7197 60.8899 73.4339 59.1999 73.442 57.0652H73.444ZM37.5344 73.3928C37.5506 75.5254 39.2789 77.2235 41.4096 77.1992C43.5038 77.175 45.1796 75.4709 45.1817 73.3624C45.1837 71.2298 43.4614 69.5014 41.3429 69.5115C39.2223 69.5216 37.5182 71.2581 37.5344 73.3928ZM13.0987 60.8757C15.2253 60.8757 16.9617 59.1433 16.9496 57.0329C16.9375 54.9487 15.2354 53.2386 13.1432 53.2103C11.0267 53.182 9.27807 54.9043 9.26999 57.0268C9.2619 59.1676 10.962 60.8757 13.0967 60.8778L13.0987 60.8757ZM13.1027 20.5875C10.9599 20.5875 9.26595 22.2876 9.27201 24.4304C9.27807 26.555 11.0166 28.2732 13.1391 28.249C15.2293 28.2267 16.9314 26.5206 16.9496 24.4324C16.9678 22.322 15.2334 20.5875 13.1027 20.5875ZM73.442 24.4082C73.438 22.2694 71.7359 20.5795 69.5891 20.5875C67.4968 20.5936 65.7907 22.2856 65.7644 24.3778C65.7381 26.4822 67.4766 28.2409 69.5951 28.249C71.7197 28.2571 73.4461 26.5368 73.442 24.4102V24.4082Z" fill="#FF9900"/>
<path d="M54.2744 34.3417C54.4887 34.4893 54.6727 34.6167 54.8546 34.744C57.6119 36.6786 59.0896 39.3328 59.312 42.6864C59.3726 43.6103 58.9623 44.1763 58.2365 44.2127C57.5452 44.247 57.1166 43.7679 57.0519 42.8663C56.8377 39.8361 55.4408 37.5579 52.728 36.155C52.3783 35.9751 51.883 36.0216 51.4605 36.0499C50.4619 36.1186 49.4673 36.2298 48.4728 36.3511C48.2605 36.3774 47.9735 36.4582 47.8704 36.6119C47.3771 37.3598 46.9364 38.1442 46.4493 38.9588C46.6069 39.07 46.8313 39.2216 47.0517 39.3833C49.6917 41.3098 51.1775 43.8811 51.3655 47.162C51.4262 48.2152 51.0704 48.7266 50.3204 48.763C49.5684 48.7974 49.1722 48.3041 49.1014 47.2772C48.8953 44.2571 47.4196 42.0578 44.7451 40.6771C44.4338 40.5174 43.9649 40.4931 43.6232 40.5922C42.099 41.0369 40.6031 41.0389 39.0809 40.5861C38.7595 40.4911 38.3209 40.4951 38.0298 40.6407C35.3432 41.9951 33.8413 44.1742 33.6128 47.1984C33.5967 47.4248 33.5926 47.6552 33.5401 47.8736C33.3864 48.5043 32.966 48.8196 32.3231 48.7509C31.7167 48.6862 31.2982 48.2961 31.3589 47.6977C31.4761 46.5535 31.5812 45.3811 31.9229 44.2935C32.5859 42.1851 33.9423 40.5437 35.7738 39.3025C35.9578 39.1771 36.1397 39.0518 36.2731 38.9608C35.7859 38.1583 35.3392 37.38 34.8439 36.6341C34.7388 36.4764 34.4659 36.3794 34.2577 36.3491C33.1701 36.1954 32.0805 36.0519 30.9869 35.9488C30.6837 35.9205 30.3279 35.963 30.0631 36.0984C27.4089 37.4629 25.9615 39.6542 25.6805 42.6217C25.6664 42.7713 25.6664 42.925 25.6502 43.0746C25.5774 43.7902 25.1246 44.2329 24.4939 44.2127C23.8632 44.1924 23.3174 43.7012 23.4165 43.0079C23.5984 41.7222 23.7945 40.4082 24.2291 39.1953C24.9103 37.2992 26.2324 35.8376 27.9082 34.7097C28.0537 34.6126 28.1973 34.5116 28.3388 34.4085C28.357 34.3943 28.3671 34.366 28.4095 34.2973C27.415 33.1935 26.7175 31.922 26.4851 30.4059C25.9635 26.9957 28.0133 23.6724 31.3184 22.6272C34.5933 21.5922 38.1773 23.0801 39.6935 26.1628C39.9886 26.7652 40.2918 26.8623 40.9609 26.929C42.2547 27.0563 42.7944 26.5307 43.4453 25.4775C45.5558 22.0592 50.2214 21.2931 53.4476 23.6825C56.7144 26.1022 57.2703 30.7374 54.6666 33.8566C54.5413 34.0062 54.418 34.1578 54.2684 34.3377L54.2744 34.3417ZM41.246 38.6637C43.9163 38.7243 46.0874 36.6341 46.1319 33.9637C46.1743 31.3621 44.0639 29.189 41.434 29.1263C38.8465 29.0637 36.6653 31.1741 36.5885 33.8141C36.5116 36.4198 38.612 38.6051 41.246 38.6657V38.6637ZM37.9065 27.7436C36.9766 25.2653 34.4174 24.0241 31.9916 24.8064C29.5375 25.5968 28.1568 28.1479 28.8401 30.6263C29.491 32.9894 31.9107 34.4994 34.3001 33.9779C34.3588 31.2752 35.5818 29.1991 37.9065 27.7416V27.7436ZM44.828 27.7638C47.179 29.2112 48.3414 31.3237 48.4344 34.0042C51.0016 34.4347 53.3708 32.8701 53.9166 30.4463C54.4847 27.9215 53.007 25.4209 50.5509 24.7437C48.1473 24.0827 45.582 25.4088 44.828 27.7638Z" fill="#FF9900"/>
<path d="M41.2823 59.1857C38.3067 59.1857 35.3311 59.1878 32.3554 59.1817C32.0583 59.1817 31.7409 59.1736 31.466 59.0806C30.9202 58.8946 30.5967 58.4297 30.7847 57.9041C30.9222 57.522 31.3447 57.2229 31.6904 56.948C31.8157 56.8469 32.0805 56.9176 32.2827 56.9176C38.335 56.9176 44.3873 56.9176 50.4376 56.9176C50.5629 56.9176 50.6903 56.9136 50.8156 56.9217C51.505 56.9621 51.9396 57.3563 51.9739 57.9688C52.0103 58.6197 51.5838 59.1029 50.8904 59.1776C50.6903 59.1999 50.4881 59.1878 50.286 59.1878C47.2861 59.1878 44.2842 59.1878 41.2843 59.1878L41.2823 59.1857Z" fill="#FF9900"/>
<path d="M49.1682 54.7161C48.6143 54.7161 48.0604 54.7322 47.5085 54.712C46.8334 54.6857 46.427 54.3219 46.3644 53.6467C46.3078 53.0241 46.7747 52.5046 47.4802 52.4803C48.6102 52.4399 49.7443 52.4379 50.8763 52.4803C51.602 52.5086 52.0185 52.9978 51.97 53.6548C51.9194 54.3502 51.4969 54.6857 50.8278 54.71C50.2759 54.7302 49.72 54.714 49.1682 54.714V54.7161Z" fill="#FF9900"/>
<path d="M35.7739 52.4825C36.4106 52.4744 36.9443 52.996 36.9322 53.6166C36.92 54.2109 36.4167 54.7021 35.8102 54.7122C35.1492 54.7223 34.662 54.2372 34.6722 53.5782C34.6823 52.9495 35.1411 52.4906 35.7718 52.4825H35.7739Z" fill="#FF9900"/>
<path d="M40.8639 53.6246C40.8457 54.2492 40.2979 54.7425 39.657 54.7081C39.0304 54.6758 38.5897 54.1987 38.6038 53.568C38.618 52.913 39.1274 52.4461 39.7884 52.4825C40.3929 52.5148 40.88 53.0323 40.8639 53.6246Z" fill="#FF9900"/>
<path d="M30.7423 53.5901C30.7444 52.9614 31.2012 52.4965 31.8299 52.4823C32.4667 52.4661 33.0064 52.9816 33.0024 53.6022C32.9983 54.2248 32.4566 54.7322 31.8178 54.71C31.1891 54.6877 30.7383 54.2208 30.7423 53.5901Z" fill="#FF9900"/>
</g>
<defs>
<clipPath id="clip0_309_306">
<rect width="68.7163" height="77.53" fill="white" transform="translate(7 2)"/>
</clipPath>
</defs>
</svg>
