<svg width="45" height="45" viewBox="0 0 45 45" fill="none" xmlns="http://www.w3.org/2000/svg">
<g clip-path="url(#clip0_1_37)">
<path d="M4.88669 41.77C4.1975 41.4518 3.99802 40.9043 4.00001 40.1652C4.01797 33.2404 4.01099 26.3156 4.01099 19.3917C4.01099 18.2976 4.42889 17.8797 5.52501 17.8797C6.97122 17.8797 8.41742 17.8717 9.86263 17.8817C11.635 17.8937 12.9844 18.909 13.4382 20.5896C13.537 20.9546 13.5609 21.3496 13.5619 21.7306C13.5699 27.1165 13.546 32.5023 13.5779 37.8882C13.5898 39.9029 12.3022 41.4768 10.4491 41.7291C10.4252 41.7321 10.4042 41.755 10.3823 41.769H4.88669V41.77ZM9.99528 34.6058C9.34598 34.5988 8.79842 35.1354 8.79144 35.7857C8.78446 36.435 9.32105 36.9826 9.97134 36.9895C10.6206 36.9965 11.1682 36.4599 11.1752 35.8096C11.1822 35.1603 10.6456 34.6128 9.99528 34.6058Z" fill="#D69F83"/>
<path d="M15.9666 37.3675V20.1148C16.3087 20.0001 16.6528 19.9044 16.9829 19.7717C18.9119 18.9948 20.2055 17.5366 21.2008 15.7762C22.3389 13.7635 23.0001 11.5693 23.5966 9.35307C23.81 8.56016 24.2279 8.26194 25.0597 8.24C26.3822 8.20609 27.5133 8.58908 28.3501 9.66625C28.8847 10.3554 29.0682 11.1484 29.1001 12.0061C29.2008 14.709 28.6702 17.3042 27.8005 19.8455C27.7666 19.9453 27.7357 20.047 27.7068 20.1487C27.6998 20.1727 27.7058 20.2006 27.7058 20.2674C27.8434 20.2674 27.984 20.2674 28.1247 20.2674C31.1896 20.2674 34.2546 20.2644 37.3195 20.2694C38.4446 20.2714 39.3432 20.8688 39.6863 21.8204C40.1551 23.1229 39.4958 24.4784 38.1803 24.9182C38.0935 24.9471 38.0067 24.9791 37.8491 25.0339C39.1497 25.4578 39.9197 26.2677 39.819 27.6321C39.7342 28.7911 39.0101 29.4822 37.8172 29.8164C37.9868 29.8782 38.0646 29.9081 38.1444 29.9351C39.2814 30.3131 39.9806 31.3852 39.821 32.5103C39.6534 33.6912 38.7258 34.539 37.517 34.5938C37.0273 34.6158 36.5356 34.5998 36.0449 34.6018C35.9003 34.6018 35.7546 34.6018 35.5542 34.6018C35.8733 34.7574 36.1576 34.8601 36.4029 35.0207C37.2008 35.5443 37.6028 36.5178 37.4013 37.4453C37.1839 38.4487 36.5645 39.0791 35.5631 39.3104C35.3078 39.3693 35.0365 39.3763 34.7732 39.3763C31.2435 39.3803 27.7147 39.3723 24.185 39.3823C22.7667 39.3862 21.3854 39.1818 20.0389 38.7389C18.7563 38.3171 17.4746 37.8892 16.193 37.4633C16.1182 37.4384 16.0484 37.4005 15.9696 37.3665L15.9666 37.3675Z" fill="#D69F83"/>
<path d="M26.7054 3.44857C26.7054 3.84552 26.7144 4.24348 26.7034 4.64044C26.6825 5.35556 26.1758 5.85824 25.4986 5.85126C24.8373 5.84428 24.3356 5.34858 24.3227 4.6534C24.3077 3.83256 24.3067 3.01072 24.3227 2.18987C24.3366 1.49769 24.8443 1.00398 25.5056 0.999994C26.1678 0.996004 26.6765 1.48771 26.7014 2.1779C26.7174 2.60079 26.7044 3.02568 26.7054 3.44956V3.44857Z" fill="#D69F83"/>
<path d="M16.6807 5.4543C16.7276 4.95361 16.939 4.58657 17.3629 4.36815C17.7838 4.15172 18.2466 4.14274 18.5967 4.4639C19.2799 5.08925 19.9422 5.74354 20.5605 6.43273C20.9495 6.86559 20.8518 7.53883 20.4359 7.95074C20.02 8.36366 19.3487 8.45542 18.9158 8.06445C18.2287 7.44407 17.5833 6.77383 16.949 6.09761C16.8004 5.93902 16.7665 5.67173 16.6797 5.4543H16.6807Z" fill="#D69F83"/>
<path d="M34.3793 5.44831C34.2366 5.72159 34.1439 6.03976 33.9434 6.26018C33.4078 6.84764 32.8383 7.40517 32.2598 7.95174C31.7502 8.43347 31.048 8.41552 30.5812 7.94576C30.1264 7.48796 30.1005 6.79079 30.5633 6.29808C31.1258 5.69865 31.7113 5.12117 32.3057 4.55266C32.6767 4.19759 33.1325 4.13675 33.5983 4.34122C34.0521 4.5397 34.2815 4.90972 34.3793 5.44931V5.44831Z" fill="#D69F83"/>
</g>
<defs>
<clipPath id="clip0_1_37">
<rect width="35.8429" height="40.77" fill="white" transform="translate(4 1)"/>
</clipPath>
</defs>
</svg>
