<svg width="45" height="45" viewBox="0 0 45 45" fill="none" xmlns="http://www.w3.org/2000/svg">
<rect width="45" height="45" fill="white"/>
<g clip-path="url(#clip0_1_36)">
<path d="M45 41.5713C44.7961 41.8803 44.6519 42.2647 44.3742 42.4808C44.059 42.7247 43.6301 42.8385 43.2375 42.9686C43.0652 43.0256 42.8601 42.9837 42.6691 42.9837C29.2523 42.9837 15.8344 42.9744 2.41756 43C1.25623 43.0023 0.433575 42.6643 -0.00119019 41.5713C-0.00119019 41.2809 -0.00119019 40.9917 -0.00119019 40.7013C0.151154 40.4434 0.275372 40.1623 0.4617 39.9323C0.809747 39.5037 1.28318 39.2923 1.84451 39.2912C2.4574 39.29 3.07147 39.2912 3.75584 39.2912C3.75584 39.0786 3.75584 38.8974 3.75584 38.715C3.75584 32.7899 3.7535 26.8648 3.75701 20.9397C3.75701 19.1149 4.70506 17.7559 6.34451 17.2135C6.57889 17.1356 6.82733 17.059 7.0699 17.0578C9.266 17.0462 11.4609 17.0508 13.6383 17.0508C13.4015 17.6247 13.0875 18.1857 12.9457 18.7862C12.8027 19.3925 12.832 20.0395 12.7805 20.7237H7.5199V39.2551H37.5058C37.5058 39.0856 37.5058 38.9299 37.5058 38.7754C37.5058 36.7322 37.5012 34.6902 37.5117 32.6471C37.5129 32.4089 37.5598 32.1546 37.6535 31.935C38.4305 30.1056 38.8617 28.1925 39.116 26.2318C39.143 26.0227 39.2555 25.795 39.3961 25.6336C39.9703 24.9773 40.5703 24.3431 41.2148 23.6427V39.2865C41.6988 39.2865 42.1207 39.3167 42.5367 39.2807C43.7051 39.1785 44.5605 39.5757 44.9976 40.699V41.569L45 41.5713Z" fill="#D69F83"/>
<path d="M29.3402 29.7246C28.6313 30.0486 28.35 29.9999 27.8344 29.4911C25.7215 27.4026 23.6086 25.3118 21.4969 23.2222C20.932 22.6635 20.8852 22.437 21.198 21.682C20.2031 21.4438 19.2152 21.2057 18.2273 20.9699C17.9719 20.9084 17.7164 20.8445 17.4586 20.7934C17.0438 20.7109 16.7191 20.5297 16.5914 20.0976C16.4625 19.6608 16.6582 19.3484 16.9641 19.0603C18.3762 17.7338 20.0648 16.9056 21.9082 16.3539C23.4012 15.9067 24.934 15.6999 26.4855 15.5884C26.6883 15.5733 26.9297 15.4537 27.0715 15.305C30.5754 11.6229 34.7871 9.1871 39.8262 8.22417C40.5551 8.08478 41.3074 8.04413 42.0516 8.00347C42.8543 7.95933 43.2059 8.33219 43.1777 9.13018C43.0734 12.1142 42.1488 14.8694 40.7672 17.4899C39.4828 19.9257 37.8188 22.0792 35.7773 23.9458C35.6285 24.0817 35.5172 24.3268 35.5043 24.5289C35.3238 27.1564 34.8199 29.699 33.443 31.9954C33.0434 32.6633 32.5231 33.2615 32.0379 33.8771C31.7731 34.214 31.4309 34.4242 30.968 34.3023C30.5098 34.1815 30.3328 33.8423 30.2332 33.4195C29.9449 32.1952 29.6438 30.9744 29.3402 29.7246Z" fill="#D69F83"/>
<path d="M24.9481 29.7583C24.8695 31.2752 24.3317 32.4112 23.0848 33.1326C21.3317 34.1466 19.4051 34.7483 17.4961 35.386C17.0953 35.5196 16.691 35.6497 16.2809 35.7519C15.5391 35.9377 14.9016 35.3697 15.1149 34.6554C15.8063 32.3404 16.5246 30.0266 17.7481 27.9195C18.5848 26.4769 19.9231 25.8879 21.5684 26.1005C23.1645 26.3061 24.2203 27.2353 24.7418 28.7349C24.8684 29.0996 24.8977 29.4969 24.9492 29.7594L24.9481 29.7583Z" fill="#D69F83"/>
</g>
<defs>
<clipPath id="clip0_1_36">
<rect width="45" height="35" fill="white" transform="translate(0 8)"/>
</clipPath>
</defs>
</svg>
