<svg width="29" height="29" viewBox="0 0 29 29" fill="none" xmlns="http://www.w3.org/2000/svg">
<path d="M0.174438 13.3836C0.246394 12.8535 0.296901 12.3192 0.394456 11.7938C1.12508 7.86748 3.17926 4.78848 6.50443 2.54654C8.42577 1.25124 10.5664 0.520363 12.8745 0.275139C13.3492 0.224451 13.83 0.208696 14.3074 0.208011C14.8893 0.206641 15.3397 0.63544 15.3708 1.18206C15.404 1.76703 15.0284 2.22871 14.4306 2.2931C13.8369 2.3568 13.2357 2.36022 12.6441 2.439C10.4101 2.73559 8.41954 3.60826 6.68985 5.03234C4.70969 6.66259 3.32386 8.69973 2.71017 11.1855C1.70072 15.2762 2.57525 18.9519 5.39396 22.1267C7.26065 24.229 9.61995 25.5153 12.4103 25.9346C16.08 26.486 19.363 25.5674 22.1865 23.1583C24.0497 21.5685 25.3186 19.5875 25.915 17.223C26.1295 16.3722 26.1856 15.4824 26.3087 14.6098C26.3302 14.457 26.3163 14.2995 26.3343 14.146C26.409 13.5124 26.8546 13.1261 27.4655 13.159C28.0384 13.1898 28.4577 13.6508 28.4556 14.2638C28.4522 15.4995 28.3117 16.7236 27.9485 17.9052C26.3668 23.0446 22.9566 26.3517 17.7211 27.7785C16.9649 27.9847 16.1644 28.0347 15.3847 28.1573C15.3037 28.1703 15.2242 28.1888 15.1439 28.2046C14.5918 28.2046 14.039 28.2046 13.4869 28.2046C13.4156 28.1888 13.3457 28.1649 13.2738 28.1594C11.0618 28.0046 8.99172 27.3785 7.10359 26.2325C3.44079 24.0104 1.18596 20.8061 0.394456 16.6133C0.295517 16.0886 0.246394 15.5543 0.174438 15.0249C0.174438 14.4776 0.174438 13.9309 0.174438 13.3836Z" fill="#F8955B"/>
<path d="M13.3741 16.7296C13.4752 16.5891 13.5284 16.4891 13.6059 16.4124C17.7371 12.3292 21.8704 8.24949 26.0009 4.16632C26.3033 3.86766 26.6298 3.66422 27.0775 3.74437C27.8807 3.88821 28.2294 4.8054 27.7188 5.43696C27.6503 5.52189 27.5701 5.59861 27.4919 5.67601C23.0729 10.0407 18.6532 14.4054 14.2335 18.7694C13.5893 19.4051 13.0033 19.3955 12.391 18.7372C10.6758 16.894 8.95927 15.0507 7.24687 13.2053C6.75356 12.6738 6.78747 11.9696 7.31399 11.5764C7.71735 11.2751 8.25355 11.2867 8.63824 11.61C8.72887 11.686 8.81052 11.7737 8.89147 11.8607C10.3202 13.3958 11.7489 14.9308 13.1756 16.4672C13.2316 16.5254 13.2745 16.5953 13.3741 16.7296Z" fill="#F8955B"/>
</svg>
