<svg width="45" height="45" viewBox="0 0 45 45" fill="none" xmlns="http://www.w3.org/2000/svg">
<g clip-path="url(#clip0_1_19)">
<rect width="45" height="45" fill="white"/>
<g clip-path="url(#clip1_1_19)">
<path d="M30.0557 0.81082C30.7004 1.08993 30.9807 1.59049 31.0649 2.28021C31.2759 3.9918 31.5262 5.69878 31.7823 7.4046C31.8157 7.62605 31.9357 7.8671 32.0868 8.03549C34.3958 10.5879 36.7152 13.1299 39.0335 15.6731C40.2664 17.026 40.3218 18.5288 39.1846 19.9544C38.6644 20.6072 38.1465 21.2623 37.6148 21.9058C36.6783 23.0408 35.3831 23.3683 34.0013 22.8193C32.2897 22.14 30.5839 21.4468 28.8712 20.7698C27.7789 20.3384 26.7721 20.8251 26.5471 21.8782C26.4399 22.3787 26.606 22.8101 26.8943 23.2126C27.8504 24.5447 28.7997 25.8838 29.7627 27.2113C30.028 27.5758 30.1652 27.9564 30.1526 28.412C30.1318 29.1732 30.1468 29.9367 30.1468 30.7325H11.4058C11.227 29.7672 11.0125 28.7868 10.8695 27.7949C10.5154 25.3498 10.4381 22.8954 10.7634 20.4399C11.6122 14.0261 14.8336 9.2569 20.6961 6.3931C22.109 5.70339 23.6453 5.26396 25.1181 4.69189C25.388 4.58693 25.6717 4.44392 25.8713 4.24323C26.764 3.34476 27.6221 2.41054 28.509 1.5063C28.7651 1.24564 29.0765 1.04034 29.3625 0.808514C29.5932 0.808514 29.8239 0.808514 30.0545 0.808514L30.0557 0.81082ZM28.8481 13.3998C28.8412 12.6939 28.2576 12.1184 27.5517 12.1219C26.8539 12.1242 26.2611 12.7135 26.2577 13.409C26.2542 14.1195 26.8701 14.7238 27.5829 14.7089C28.2876 14.6939 28.8562 14.1068 28.8493 13.3998H28.8481Z" fill="#D69F83"/>
<path d="M21.0606 45.0135C16.2477 45.0135 11.4358 45.0135 6.62283 45.0135C5.55482 45.0135 5.06464 44.5244 5.06233 43.461C5.06233 42.7137 5.05541 41.9651 5.06348 41.2178C5.07271 40.3793 5.60903 39.836 6.44406 39.836C16.1992 39.8337 25.9532 39.8326 35.7084 39.836C36.5238 39.836 37.0566 40.3758 37.0647 41.1912C37.0728 41.9536 37.067 42.716 37.067 43.4772C37.0659 44.521 36.578 45.0123 35.5411 45.0123C30.7143 45.0123 25.8875 45.0123 21.0606 45.0123V45.0135Z" fill="#D69F83"/>
<path d="M33.6081 37.226H8.53857C8.53857 36.294 8.49705 35.3771 8.55241 34.466C8.59047 33.8328 9.15331 33.3933 9.79458 33.361C9.90992 33.3553 10.0253 33.3587 10.1406 33.3587C17.431 33.3587 24.7214 33.3587 32.0118 33.3587C33.1433 33.3587 33.6058 33.8224 33.6069 34.9538C33.6069 35.6989 33.6069 36.444 33.6069 37.226H33.6081Z" fill="#D69F83"/>
<path d="M8.03221 25.9853C7.21678 25.6312 6.45787 25.3267 5.72318 24.9715C5.29067 24.7627 5.04846 24.3556 5.07383 23.8792C5.31835 19.2254 6.10956 14.7054 8.61466 10.6628C11.0817 6.68142 14.6491 4.35048 19.3283 3.77033C19.5485 3.74265 19.7735 3.74035 20.101 3.71959C19.1899 4.22937 18.3594 4.65035 17.574 5.14168C12.5407 8.28345 9.56273 12.8231 8.43012 18.6072C7.97454 20.937 7.89842 23.2876 8.03221 25.6496C8.03683 25.7338 8.03221 25.818 8.03221 25.9853Z" fill="#D69F83"/>
</g>
</g>
<defs>
<clipPath id="clip0_1_19">
<rect width="45" height="45" fill="white"/>
</clipPath>
<clipPath id="clip1_1_19">
<rect width="34.94" height="44.2027" fill="white" transform="translate(5.06 0.810802)"/>
</clipPath>
</defs>
</svg>
