<svg width="45" height="45" viewBox="0 0 45 45" fill="none" xmlns="http://www.w3.org/2000/svg">
<rect width="45" height="45" fill="white"/>
<g clip-path="url(#clip0_1_14)">
<path d="M35.7589 45H10.2399C9.96068 44.9202 9.67786 44.8509 9.40332 44.7593C7.26856 44.0491 6.00474 42.2411 6.00356 39.886C6.00119 31.5963 6.00356 23.3077 6.00356 15.018C6.00356 13.0844 5.99527 11.152 6.00592 9.21837C6.01894 6.92552 7.40346 5.04592 9.52521 4.43191C10.6944 4.09379 11.8907 4.26637 13.1332 4.22528C13.1332 4.446 13.1332 4.6174 13.1332 4.78998C13.138 6.29859 13.1037 7.80838 13.1545 9.31464C13.2386 11.7707 15.1946 13.824 17.6619 13.8851C21.1587 13.972 24.6602 13.986 28.157 13.8945C30.9202 13.8229 32.8183 11.7578 32.8597 9.00822C32.881 7.57358 32.8632 6.13775 32.8656 4.70311C32.8656 4.55049 32.8845 4.39786 32.8952 4.24524C33.778 4.24524 34.6051 4.21354 35.4287 4.25816C35.8784 4.28281 36.3375 4.3873 36.7635 4.53875C38.7906 5.25607 39.9941 7.0617 39.9953 9.35103C39.9976 18.7091 39.9953 28.0684 39.9953 37.4264C39.9953 38.3046 40.0047 39.1839 39.9929 40.0621C39.9621 42.2986 38.619 44.1348 36.5541 44.7758C36.2914 44.858 36.024 44.926 35.7589 45ZM27.9452 32.1892C29.5688 32.1892 31.1935 32.1927 32.8171 32.188C33.6916 32.1856 34.2785 31.6597 34.2856 30.8895C34.2927 30.1018 33.6963 29.5617 32.7993 29.5535C32.1946 29.5476 31.5888 29.5523 30.9841 29.5523C28.3854 29.5523 25.788 29.5547 23.1893 29.5511C22.6166 29.5511 22.1409 29.7249 21.8474 30.2379C21.3398 31.1255 21.9646 32.1727 23.0296 32.1845C24.6685 32.2021 26.3063 32.1892 27.9452 32.1903V32.1892ZM27.9878 21.0888C26.3785 21.0888 24.7691 21.0877 23.1598 21.0888C22.2675 21.09 21.6628 21.6336 21.6711 22.419C21.6806 23.1845 22.2817 23.7233 23.1444 23.7245C26.3631 23.7269 29.5818 23.7269 32.8005 23.7245C33.6916 23.7245 34.2927 23.1774 34.2832 22.3896C34.275 21.6171 33.6845 21.0912 32.8147 21.0888C31.2054 21.0853 29.596 21.0888 27.9866 21.0888H27.9878ZM27.9961 38.0393C26.3726 38.0393 24.7478 38.0357 23.1243 38.0404C22.258 38.0428 21.6664 38.5852 21.6711 39.3565C21.6747 40.1185 22.277 40.6726 23.1373 40.6738C26.3702 40.6785 29.6031 40.6785 32.8372 40.6702C33.0537 40.6702 33.2821 40.628 33.4821 40.5505C34.0691 40.3204 34.3803 39.7087 34.2584 39.0818C34.1401 38.4772 33.6229 38.0463 32.9579 38.0428C31.3048 38.0334 29.6504 38.0393 27.9973 38.0381L27.9961 38.0393ZM14.4184 29.0757C14.2491 28.8702 14.1273 28.6824 13.9675 28.5344C13.4101 28.0179 12.609 28.0249 12.0954 28.5344C11.589 29.0369 11.5795 29.8493 12.099 30.3941C12.5546 30.8719 13.0256 31.338 13.506 31.7923C14.0811 32.3347 14.8396 32.3429 15.4112 31.7923C16.3626 30.8743 17.2951 29.9362 18.2299 28.9994C18.5364 28.6929 18.6831 28.3149 18.6157 27.8793C18.534 27.3593 18.2441 26.9918 17.74 26.8169C17.2146 26.6337 16.7425 26.7605 16.3555 27.1385C15.7248 27.7525 15.1106 28.3842 14.4207 29.078L14.4184 29.0757ZM14.4077 37.5838C14.2338 37.3536 14.1237 37.1541 13.9651 37.0073C13.4101 36.4943 12.6055 36.5048 12.0943 37.0108C11.5878 37.5121 11.5795 38.3234 12.0978 38.8693C12.5534 39.3471 13.0244 39.812 13.5048 40.2664C14.0799 40.8088 14.8384 40.8146 15.4076 40.2664C16.3579 39.3471 17.2892 38.4103 18.224 37.4757C18.5317 37.1693 18.6808 36.7936 18.6157 36.3593C18.5376 35.8403 18.2548 35.4611 17.7471 35.2944C17.2312 35.1254 16.7507 35.2181 16.3602 35.6079C15.7366 36.2278 15.1248 36.8582 14.4089 37.5861L14.4077 37.5838ZM14.4101 20.5922C14.2503 20.395 14.1438 20.2318 14.0066 20.1015C13.4314 19.5532 12.6362 19.538 12.1049 20.0557C11.5677 20.5781 11.5819 21.4 12.1475 21.9776C12.5688 22.4073 12.9983 22.8299 13.4291 23.2502C14.0835 23.8889 14.8313 23.8877 15.4905 23.2408C16.3709 22.3767 17.2466 21.5068 18.1187 20.6345C18.7612 19.9923 18.805 19.2116 18.2406 18.6504C17.6891 18.1033 16.8714 18.1503 16.2407 18.7725C15.6561 19.3489 15.0763 19.9289 14.4077 20.5934L14.4101 20.5922Z" fill="#D69F83"/>
<path d="M15.8147 4.22528C15.8052 4.41429 15.7946 4.54461 15.7946 4.67375C15.7934 6.09431 15.7875 7.51487 15.7946 8.9366C15.8029 10.3889 16.7046 11.2905 18.179 11.294C21.3977 11.3034 24.6176 11.3046 27.8363 11.294C29.299 11.2893 30.1971 10.3771 30.2042 8.91899C30.2113 7.49843 30.2066 6.07787 30.2042 4.65614C30.2042 4.52817 30.1877 4.40138 30.1758 4.2288H28.4564C27.5938 1.30433 25.1998 0.0446081 23.1455 0.00116952C20.5434 -0.0528352 18.6926 1.33133 17.5258 4.22528H15.8135H15.8147Z" fill="white"/>
<path d="M15.8147 4.22528H17.527C18.6926 1.33133 20.5434 -0.0528352 23.1456 0.00116952C25.1987 0.0434341 27.5938 1.30315 28.4565 4.2288H30.1759C30.1877 4.4002 30.2043 4.52817 30.2043 4.65614C30.2054 6.0767 30.2114 7.49726 30.2043 8.91899C30.1972 10.3759 29.299 11.2882 27.8364 11.294C24.6177 11.3058 21.3978 11.3046 18.1791 11.294C16.7046 11.2893 15.8029 10.3889 15.7946 8.9366C15.7863 7.51604 15.7922 6.09548 15.7946 4.67375C15.7946 4.54461 15.8064 4.41429 15.8147 4.22528Z" fill="#D69F83"/>
</g>
<defs>
<clipPath id="clip0_1_14">
<rect width="34" height="45" fill="white" transform="translate(6)"/>
</clipPath>
</defs>
</svg>
