<svg width="81" height="81" viewBox="0 0 81 81" fill="none" xmlns="http://www.w3.org/2000/svg">
<rect width="81" height="81" fill="transparent"/>
<g clip-path="url(#clip0_309_264)">
<path d="M21.2283 67.0135C21.2283 65.3018 21.2238 63.7281 21.2283 62.1544C21.2374 60.2958 22.0039 59.5338 23.8512 59.5292C25.2644 59.5247 26.6753 59.5179 28.0885 59.5066C28.1383 59.5066 28.188 59.4659 28.093 59.5066C28.197 57.7588 28.2739 56.0856 28.4005 54.4146C28.8437 48.5471 29.3072 42.6818 29.7527 36.8142C29.7685 36.6084 29.6826 36.3936 29.6328 36.1856C29.4158 35.2902 29.0269 34.3993 29.0088 33.5017C28.9364 29.9427 28.9794 26.3792 28.9794 22.5941C28.1156 23.3018 27.4237 23.9553 26.6459 24.4867C25.6149 25.1899 25.1287 26.092 24.9388 27.3334C24.5657 29.7595 24.0366 32.1608 23.5392 34.5667C23.157 36.4162 21.5743 37.4676 19.797 37.1059C18.1306 36.769 17.0928 35.098 17.4432 33.305C18.0176 30.352 18.5987 27.4012 19.1752 24.4482C19.4398 23.0938 20.1136 21.9768 21.1695 21.0995C23.6567 19.0283 26.1553 16.9707 28.6515 14.9086C29.3841 14.3026 30.2253 14.0358 31.1817 14.0404C34.5598 14.0562 37.9401 14.0652 41.3182 14.0358C42.399 14.0268 43.3148 14.3456 44.1514 15.0104C45.949 16.4394 47.7759 17.83 49.5622 19.2725C50.089 19.6976 50.5232 19.7542 51.1292 19.4263C53.1234 18.35 55.1381 17.3122 57.1618 16.2902C58.4009 15.6638 59.6015 15.8244 60.6416 16.7198C61.6342 17.5767 61.9033 18.7028 61.5574 19.9554C61.3154 20.8282 60.7343 21.4409 59.9361 21.8547C57.6547 23.0373 55.3868 24.2538 53.0827 25.3934C50.8443 26.499 48.6849 26.2684 46.6838 24.7738C45.7115 24.048 44.7687 23.2815 43.7037 22.4494C43.6766 22.7931 43.6449 23.0215 43.6449 23.2476C43.6426 27.5301 43.6539 31.8149 43.6291 36.0974C43.6268 36.6401 43.7941 36.9499 44.2554 37.2212C45.854 38.1573 47.4074 39.1725 49.0195 40.0815C50.8488 41.1125 51.6989 42.6162 51.6017 44.7122C51.4887 47.1339 51.4344 49.5578 51.353 52.0111H56.0041C56.0222 51.742 56.0516 51.5001 56.0516 51.2604C56.0561 49.8788 56.0448 48.4973 56.0561 47.1158C56.0697 45.4335 56.8204 44.6625 58.4868 44.6602C63.4431 44.6489 68.4017 44.6557 73.3581 44.658C73.496 44.658 73.6362 44.6625 73.7718 44.676C74.9182 44.7891 75.6395 45.5172 75.7322 46.659C75.7548 46.9349 75.7526 47.2107 75.7526 47.4866C75.7526 56.8815 75.7526 66.2786 75.7526 75.6735C75.7526 77.8917 75.0968 78.5496 72.8968 78.5496C50.8239 78.5496 28.751 78.5496 6.68038 78.5496C4.53685 78.5496 3.86531 77.8736 3.86304 75.7187C3.86304 73.6453 3.854 71.5741 3.86531 69.5007C3.87435 67.7913 4.65217 67.018 6.36156 67.0158C10.9584 67.009 15.5552 67.0135 20.1543 67.0135H21.2374H21.2283ZM58.4257 47.0321V76.1597H73.349V47.0321H58.4257ZM41.0085 54.3965V76.1777H55.977V54.3965H41.0085ZM41.3047 29.2531C41.3047 26.6822 41.3182 24.1113 41.2979 21.5427C41.2911 20.7174 41.4268 19.9916 42.2317 19.5778C43.0909 19.1346 43.7602 19.5348 44.4205 20.0662C45.5849 21.0023 46.7765 21.9045 47.9455 22.8315C49.2773 23.8875 50.6905 24.0344 52.2032 23.2498C54.3377 22.1419 56.4721 21.0339 58.6111 19.9283C59.1108 19.6705 59.5857 19.3653 59.2669 18.7231C58.9254 18.0335 58.385 18.2528 57.8559 18.5309C55.9702 19.519 54.0641 20.4687 52.1941 21.4839C50.7289 22.2821 49.4243 22.1577 48.1287 21.104C46.3469 19.6547 44.5335 18.246 42.6975 16.8667C42.3289 16.5909 41.8044 16.3874 41.3476 16.3829C37.9967 16.3422 34.6457 16.3422 31.2948 16.3829C30.8403 16.3874 30.3089 16.5886 29.9539 16.8758C27.5617 18.8 25.2146 20.783 22.8337 22.7207C22.0152 23.3855 21.5517 24.2131 21.3708 25.2351C21.1808 26.2955 20.966 27.3492 20.758 28.4051C20.4143 30.1665 20.0458 31.9234 19.7473 33.6916C19.693 34.0127 19.8581 34.4446 20.0729 34.7023C20.1882 34.8402 20.7218 34.8267 20.8869 34.682C21.1243 34.4694 21.2668 34.0873 21.3346 33.7527C21.866 31.1004 22.3724 28.4436 22.8767 25.7868C23.053 24.853 23.4781 24.0932 24.2333 23.4895C25.5719 22.4177 26.8901 21.3188 28.1993 20.2086C28.8279 19.6773 29.4746 19.3042 30.3067 19.6909C31.1704 20.0911 31.3083 20.8508 31.3061 21.701C31.2948 25.6262 31.3287 29.5515 31.2834 33.4745C31.2721 34.4853 31.6384 35.1003 32.4909 35.6203C36.6739 38.1641 40.8208 40.7643 44.9925 43.3239C46.1344 44.0248 46.7132 44.9836 46.6793 46.3334C46.6431 47.7692 46.6386 49.2073 46.6522 50.6454C46.6589 51.5023 47.1541 52.045 47.8596 52.045C48.5696 52.045 49.0693 51.5068 49.0964 50.668C49.1597 48.6511 49.1823 46.6342 49.2728 44.6195C49.3248 43.4709 48.8884 42.6953 47.889 42.112C45.9784 40.9995 44.1197 39.7966 42.2181 38.666C41.5421 38.2636 41.2888 37.7367 41.2979 36.9634C41.3295 34.3925 41.3092 31.8239 41.3092 29.2531H41.3047ZM23.6025 61.8944V76.18H38.5913V61.8944H23.6025ZM21.1786 69.3854H6.24851V76.1845H21.1786V69.3854ZM38.6388 59.4976C38.6388 57.7475 38.6298 56.0924 38.6411 54.4372C38.6524 52.8545 39.4686 52.0586 41.0627 52.0518C42.1888 52.0472 43.3148 52.0518 44.3413 52.0518C44.3413 50.5255 44.2237 49.0807 44.373 47.6652C44.5313 46.1639 44.0067 45.2888 42.6771 44.5946C40.9723 43.7038 39.3782 42.6026 37.662 41.5467C36.7847 47.5929 35.921 53.5305 35.055 59.4998H38.6366L38.6388 59.4976ZM32.0206 38.0488C31.9912 38.3359 31.9731 38.4716 31.9618 38.6095C31.591 43.3397 31.2156 48.0722 30.8493 52.8025C30.7091 54.6181 30.5825 56.4338 30.4695 58.2517C30.4288 58.9187 30.7657 59.4004 31.4304 59.4953C32.111 59.5903 32.5971 59.2376 32.8165 58.5728C32.8775 58.3896 32.9069 58.1974 32.9363 58.0053C33.7707 52.2462 34.605 46.4895 35.4213 40.7282C35.4529 40.5066 35.3602 40.1448 35.1997 40.0363C34.1957 39.3647 33.1556 38.7474 32.0228 38.0488H32.0206Z" fill="#FF9900"/>
<path d="M36.2826 12.9235C33.2505 12.919 30.813 10.4657 30.8266 7.43585C30.8402 4.46476 33.2844 2.02276 36.2713 2.00015C39.2673 1.97754 41.7749 4.46702 41.7771 7.4675C41.7794 10.4816 39.3148 12.9303 36.2804 12.9235H36.2826ZM36.26 10.6059C38.0124 10.6217 39.4459 9.22664 39.4572 7.49237C39.4685 5.76941 38.0259 4.31778 36.3007 4.31778C34.6049 4.31778 33.1804 5.71515 33.1533 7.40871C33.1239 9.15881 34.5122 10.5878 36.26 10.6037V10.6059Z" fill="#FF9900"/>
</g>
<defs>
<clipPath id="clip0_309_264">
<rect width="71.8941" height="76.5497" fill="white" transform="translate(3.85168 2)"/>
</clipPath>
</defs>
</svg>
