<svg id="Layer_1" data-name="Layer 1" xmlns="http://www.w3.org/2000/svg" width="2.13in" height="0.64in" viewBox="0 0 153.17 46"><defs><style>.cls-1{fill:#f90;}</style></defs><path class="cls-1" d="M62.7,44.77a55.06,55.06,0,0,1-17.42-2.71,50.68,50.68,0,0,1-13.63-6.54c-2.27-1.57-4.39-3.36-6.54-5.06-.12-.08-.28-.18-.31-.3a1.11,1.11,0,0,1,0-.72.68.68,0,0,1,.62-.1c.42.21.84.44,1.24.69a74.3,74.3,0,0,0,14.17,6A67.58,67.58,0,0,0,54.89,39c3.27.28,6.55.6,9.83.57a90.26,90.26,0,0,0,9.41-.81,65.38,65.38,0,0,0,12.73-2.89c1.93-.61,3.81-1.4,5.72-2.1a1.52,1.52,0,0,1,.87-.17c.35.09.84.3.93.59a1.17,1.17,0,0,1-.36,1,33.14,33.14,0,0,1-3.21,2.2,47.51,47.51,0,0,1-10,4.49,54.6,54.6,0,0,1-14.2,2.8Z"/><path d="M34.77,5.61a6,6,0,0,1,5.83-4.1c2.91,0,4.68,1.61,5.83,4.21L46.82,5a6.63,6.63,0,0,1,9-2.66,6.74,6.74,0,0,1,1.6,1.21,6.87,6.87,0,0,1,1.51,4.83V25.3c0,1-.25,1.25-1.27,1.25H53.93c-.93,0-1.17-.26-1.17-1.16V12.3c0-.77,0-1.55,0-2.33-.1-1.67-.78-2.51-2.16-2.69a2.87,2.87,0,0,0-3.3,2.09,14.92,14.92,0,0,0-.38,3.33V25.15c0,1.25-.15,1.41-1.42,1.41H41.93c-.84,0-1.12-.28-1.12-1.12V11.81a12.31,12.31,0,0,0-.28-2.63,2.32,2.32,0,0,0-2.19-2,2.49,2.49,0,0,0-2.8,1.58,8.72,8.72,0,0,0-.56,2.8c-.07,4.13,0,8.26-.06,12.39v1.48c0,.78-.28,1.06-1.06,1.06h-4c-.82,0-1.1-.28-1.1-1.08V3.29c0-1.11.22-1.29,1.3-1.3h3.44c.84,0,1.08.28,1.09,1.09s0,1.64,0,2.45Z"/><path d="M17.38,11c-.09-1-.09-1.95-.25-2.88a2.39,2.39,0,0,0-1.87-2,3.63,3.63,0,0,0-4.61,2.26c0,.07-.05.14-.07.21-.17.78-.44.94-1.2.85-1.14-.13-2.33-.24-3.51-.38-1-.13-1.16-.38-.93-1.39A7.25,7.25,0,0,1,9,2.55a12.87,12.87,0,0,1,10.21-.46,6.16,6.16,0,0,1,4.3,6.16c.06,3.13.06,6.27,0,9.4A6.56,6.56,0,0,0,25,22c.77.93.72,1.16-.21,2L22,26.32c-.63.54-1,.56-1.58,0-.77-.77-1.51-1.71-2.33-2.64-.22.2-.51.46-.78.72A8.91,8.91,0,0,1,9,26.62,6.12,6.12,0,0,1,4.1,20.69C3.89,16.17,6.19,13,10.64,12c1.87-.43,3.74-.59,5.61-.88C16.58,11.07,16.92,11.05,17.38,11Zm-.07,5.2v-1c0-.34-.12-.64-.59-.58-.84.11-1.72.13-2.56.3-2.67.63-3.93,2.52-3.46,5.13a2.7,2.7,0,0,0,3,2.39,2.88,2.88,0,0,0,1-.31,4.23,4.23,0,0,0,1.87-1.87A8.19,8.19,0,0,0,17.31,16.2Z"/><path d="M77.05,23.68a24.59,24.59,0,0,1-2,1.66,8.68,8.68,0,0,1-8.58.84,5.69,5.69,0,0,1-3.39-4.67c-.76-4.6,1.63-8.34,6.16-9.43,1.93-.47,3.92-.64,5.88-.93L76.26,11a28.76,28.76,0,0,0-.42-3.21,2.38,2.38,0,0,0-2.15-1.72,3.56,3.56,0,0,0-4.28,2.64h0a.93.93,0,0,1-1.06.79h-.07c-1.23-.16-2.45-.26-3.68-.41-.87-.1-1.08-.43-.93-1.27a7.49,7.49,0,0,1,4.54-5.47,13.22,13.22,0,0,1,9.35-.43,6.22,6.22,0,0,1,4.75,6.29c.08,3.13.07,6.26,0,9.4A6.68,6.68,0,0,0,83.75,22c.76.93.71,1.15-.23,2l-2.73,2.35c-.62.54-.93.54-1.59,0A14.64,14.64,0,0,1,78,25,15.67,15.67,0,0,1,77.05,23.68Zm-.93-7.31V15.14c0-.42-.11-.57-.53-.53a24.06,24.06,0,0,0-2.8.35,4.09,4.09,0,0,0-3.36,5,2.66,2.66,0,0,0,2.85,2.46A2.76,2.76,0,0,0,73.56,22a5.66,5.66,0,0,0,1.68-1.73,6.85,6.85,0,0,0,.88-3.89Z"/><path d="M136.53,5.92c.38-.67.73-1.36,1.16-2,1.5-2.21,3.74-2.72,6.18-2.33a5.35,5.35,0,0,1,4.67,4.28A18.06,18.06,0,0,1,149,9.75c0,5.26,0,10.51,0,15.76,0,.75-.3,1-1.07,1h-4c-.84,0-1.12-.28-1.12-1.15V11.65a11.76,11.76,0,0,0-.26-2.44,2.39,2.39,0,0,0-2.06-2.05,2.56,2.56,0,0,0-2.8,1.35,9.53,9.53,0,0,0-.94,2.75,17.45,17.45,0,0,0-.13,2.8v11.2c0,1-.22,1.28-1.29,1.28h-3.74c-.82,0-1.12-.28-1.12-1.07V3c0-.77.26-1,1.07-1h3.69c.79,0,1,.28,1,1.07V5.92Z"/><path d="M107,14.26a16,16,0,0,1,1.87-8.1C112.35,0,121.32.1,124.93,5.74c3,4.68,3.06,12.33,0,16.92A9.14,9.14,0,0,1,116.4,27a9,9,0,0,1-7.94-5.41A16.17,16.17,0,0,1,107,14.26Zm6.46.12h.08c.06.93.07,1.82.17,2.72a8.67,8.67,0,0,0,1,3.77,2.76,2.76,0,0,0,4.78.12,6.87,6.87,0,0,0,.82-2,20.19,20.19,0,0,0,.34-6.25,27.85,27.85,0,0,0-.71-4.54,2.56,2.56,0,0,0-2.43-2,2.81,2.81,0,0,0-3,1.62,5.22,5.22,0,0,0-.57,1.65c-.24,1.65-.36,3.31-.53,5Z"/><path d="M96.42,6.86H88.94c-.82,0-1.06-.24-1.06-1V2.89c0-.67.28-.93.93-.93h14.47c.67,0,.93.28.93.93v.23c0,2.9,0,2.9-1.66,5.29q-3.33,4.66-6.62,9.45l-.4.6c.93.07,1.8.1,2.67.18a14.61,14.61,0,0,1,5.45,1.56,1.68,1.68,0,0,1,1.07,1.61v3.11c0,1-.52,1.21-1.33.82a16.8,16.8,0,0,0-15.07,0c-.74.35-1.26.07-1.27-.74-.06-1.25-.06-2.5,0-3.74a4.43,4.43,0,0,1,.72-2c2.69-4,5.45-7.86,8.18-11.77C96.1,7.35,96.19,7.17,96.42,6.86Z"/><path class="cls-1" d="M93.8,30.32l-5.61.56a1.14,1.14,0,0,1-.45,0c-.17,0-.43-.1-.47-.22a.52.52,0,0,1,.16-.44,9.58,9.58,0,0,1,1.58-1A16.94,16.94,0,0,1,99.4,28.1c2,.36,2,.93,1.77,3.11a16.38,16.38,0,0,1-3,8,15.86,15.86,0,0,1-1.93,2.08c-.16.16-.49.15-.74.22a2.89,2.89,0,0,1,0-.72c.74-2.25,1.52-4.5,2.23-6.76a6.29,6.29,0,0,0,.18-1.73,1.41,1.41,0,0,0-1.15-1.52C95.74,30.58,94.71,30.46,93.8,30.32Z"/></svg>